<svg xmlns="http://www.w3.org/2000/svg" viewBox="0 0 1013 1024" width="1013" height="1024" role="img" aria-label="Kraken logo vector">
  <title>Kraken logo vector</title>
  <path fill="#000000" fill-rule="evenodd" d="M 508 9 L 515 9 L 521 15 L 521 80 L 569 82 L 610 87 L 644 93 L 687 104 L 714 113 L 752 129 L 782 146 L 811 166 L 841 193 L 841 195 L 852 205 L 856 212 L 865 221 L 887 256 L 901 289 L 905 306 L 940 316 L 949 326 L 951 333 L 951 348 L 961 351 L 969 359 L 973 368 L 976 387 L 977 433 L 974 471 L 966 498 L 958 506 L 943 510 L 943 517 L 940 526 L 936 533 L 930 538 L 921 541 L 890 545 L 885 567 L 868 606 L 850 631 L 837 643 L 819 655 L 798 665 L 777 672 L 756 676 L 754 678 L 778 711 L 801 735 L 827 753 L 842 759 L 856 762 L 867 762 L 879 759 L 890 753 L 896 747 L 899 741 L 899 732 L 891 722 L 889 709 L 895 696 L 906 686 L 923 679 L 941 678 L 957 682 L 969 688 L 982 699 L 990 712 L 991 721 L 984 733 L 996 737 L 1003 748 L 1004 773 L 1002 782 L 998 789 L 992 793 L 985 794 L 983 799 L 992 809 L 992 822 L 981 843 L 968 857 L 962 860 L 955 860 L 950 857 L 945 858 L 943 862 L 946 869 L 942 879 L 921 896 L 903 904 L 890 904 L 880 896 L 874 898 L 870 909 L 862 914 L 840 918 L 819 918 L 806 912 L 803 901 L 795 901 L 791 907 L 785 910 L 772 910 L 750 902 L 757 917 L 758 936 L 756 943 L 752 948 L 753 958 L 747 971 L 733 986 L 725 991 L 720 993 L 709 993 L 701 989 L 698 997 L 692 1003 L 677 1008 L 647 1010 L 637 1006 L 630 994 L 626 994 L 618 1002 L 607 1003 L 581 992 L 571 985 L 566 979 L 564 974 L 565 963 L 560 965 L 550 965 L 541 960 L 531 949 L 521 927 L 521 921 L 525 912 L 520 910 L 520 1009 L 514 1015 L 508 1015 L 505 1013 L 502 1008 L 503 885 L 492 869 L 486 854 L 485 846 L 482 853 L 475 861 L 466 864 L 472 875 L 472 883 L 467 898 L 459 913 L 453 921 L 441 931 L 430 932 L 426 930 L 423 933 L 426 940 L 423 951 L 419 957 L 400 974 L 383 983 L 371 983 L 362 977 L 357 980 L 356 987 L 349 995 L 339 1000 L 323 1004 L 294 1005 L 286 999 L 283 993 L 269 1001 L 256 1000 L 231 989 L 225 984 L 223 978 L 214 973 L 206 964 L 200 952 L 197 940 L 197 930 L 203 914 L 197 915 L 189 913 L 182 905 L 176 905 L 174 910 L 168 916 L 163 918 L 146 918 L 128 914 L 109 906 L 102 897 L 102 889 L 95 887 L 92 891 L 85 894 L 75 893 L 57 882 L 43 868 L 37 856 L 37 847 L 41 838 L 26 834 L 18 826 L 10 806 L 9 786 L 12 779 L 21 773 L 16 761 L 17 745 L 27 723 L 45 703 L 64 692 L 80 688 L 98 689 L 107 692 L 123 705 L 128 715 L 129 727 L 126 735 L 119 742 L 118 749 L 124 756 L 138 762 L 154 762 L 174 754 L 189 744 L 214 717 L 226 699 L 234 681 L 225 683 L 191 681 L 164 673 L 150 666 L 139 659 L 121 641 L 110 621 L 106 606 L 106 580 L 109 567 L 115 553 L 132 529 L 145 517 L 154 512 L 146 483 L 141 451 L 139 388 L 146 338 L 161 290 L 185 243 L 212 206 L 251 167 L 298 134 L 336 115 L 391 96 L 449 84 L 503 80 L 502 18 L 503 14 Z M 496 106 L 457 110 L 408 120 L 367 133 L 330 149 L 290 173 L 271 188 L 264 196 L 262 196 L 233 227 L 213 254 L 201 274 L 182 316 L 174 344 L 169 374 L 169 448 L 172 471 L 179 503 L 183 513 L 183 520 L 178 526 L 164 535 L 151 548 L 144 558 L 135 580 L 134 599 L 137 612 L 143 624 L 162 642 L 184 652 L 211 657 L 228 657 L 245 654 L 251 651 L 260 651 L 266 657 L 266 667 L 263 678 L 247 714 L 224 746 L 196 771 L 168 785 L 154 788 L 134 787 L 123 784 L 106 774 L 97 764 L 92 752 L 93 737 L 96 731 L 104 723 L 103 719 L 97 714 L 81 712 L 68 717 L 60 725 L 53 740 L 52 758 L 54 768 L 62 789 L 73 805 L 84 816 L 102 828 L 120 836 L 141 842 L 156 844 L 192 842 L 220 834 L 241 824 L 261 811 L 283 791 L 283 789 L 297 774 L 310 753 L 314 754 L 319 759 L 308 777 L 294 795 L 272 817 L 257 828 L 228 843 L 212 849 L 188 854 L 146 854 L 124 849 L 108 843 L 78 825 L 60 806 L 49 786 L 44 771 L 41 750 L 39 759 L 39 762 L 42 764 L 41 780 L 49 787 L 55 802 L 55 815 L 52 821 L 58 830 L 63 828 L 77 830 L 91 842 L 98 854 L 98 870 L 111 876 L 113 869 L 121 861 L 129 858 L 145 858 L 165 866 L 173 877 L 174 887 L 188 887 L 187 879 L 191 870 L 202 860 L 218 853 L 233 852 L 240 855 L 247 862 L 249 873 L 270 863 L 271 861 L 266 857 L 263 850 L 263 839 L 271 824 L 281 815 L 289 811 L 298 810 L 305 812 L 310 816 L 318 791 L 325 759 L 328 734 L 328 713 L 332 710 L 337 711 L 339 714 L 340 728 L 338 774 L 331 815 L 323 840 L 307 871 L 297 884 L 281 899 L 259 911 L 252 913 L 238 911 L 232 913 L 227 918 L 224 924 L 224 928 L 227 933 L 234 939 L 244 943 L 259 946 L 274 946 L 293 943 L 318 935 L 353 916 L 366 906 L 387 885 L 403 863 L 417 837 L 430 801 L 444 750 L 454 732 L 460 734 L 460 738 L 452 757 L 438 813 L 442 803 L 451 793 L 458 790 L 468 791 L 468 777 L 471 766 L 475 761 L 480 760 L 483 761 L 489 769 L 498 815 L 502 826 L 503 541 L 494 551 L 480 559 L 469 562 L 452 562 L 439 558 L 428 552 L 416 540 L 409 527 L 410 520 L 415 516 L 420 516 L 424 518 L 431 532 L 441 540 L 455 545 L 466 545 L 474 543 L 485 537 L 493 528 L 497 518 L 502 515 L 502 106 Z M 685 131 L 653 186 L 625 241 L 620 246 L 521 247 L 521 311 L 667 311 L 699 319 L 724 332 L 749 354 L 764 375 L 775 401 L 779 421 L 779 446 L 773 473 L 763 494 L 750 512 L 737 525 L 722 536 L 699 547 L 675 553 L 521 553 L 521 592 L 616 592 L 625 607 L 639 642 L 703 632 L 704 569 L 708 565 L 816 545 L 854 574 L 863 551 L 863 548 L 821 502 L 822 318 L 836 304 L 836 302 L 811 282 L 811 275 L 819 275 L 842 296 L 844 296 L 860 280 L 865 272 L 847 242 L 834 226 L 812 247 L 814 259 L 812 264 L 806 270 L 793 272 L 784 267 L 780 260 L 780 251 L 783 245 L 787 241 L 795 238 L 805 240 L 826 219 L 826 217 L 807 198 L 804 198 L 758 244 L 760 256 L 753 267 L 745 270 L 734 268 L 726 258 L 726 247 L 728 243 L 734 237 L 741 235 L 751 238 L 797 191 L 797 189 L 764 166 L 743 154 L 708 138 Z M 742 704 L 723 714 L 698 723 L 646 734 L 588 738 L 521 734 L 521 766 L 524 767 L 567 770 L 578 748 L 610 748 L 642 744 L 648 744 L 650 746 L 649 751 L 646 753 L 606 757 L 584 757 L 578 773 L 573 780 L 521 776 L 521 810 L 525 811 L 531 817 L 534 825 L 533 837 L 528 849 L 534 850 L 540 856 L 546 868 L 539 835 L 536 802 L 537 796 L 543 795 L 546 799 L 548 827 L 552 850 L 561 880 L 567 892 L 585 880 L 610 870 L 612 864 L 618 861 L 639 856 L 659 857 L 661 844 L 644 841 L 607 844 L 603 830 L 601 807 L 607 805 L 610 809 L 614 835 L 632 832 L 663 835 L 673 783 L 675 778 L 679 775 L 686 777 L 688 789 L 691 788 L 705 803 L 731 822 L 752 833 L 781 842 L 788 821 L 800 801 L 800 798 L 773 783 L 759 770 L 757 770 L 746 758 L 747 754 L 752 749 L 759 746 L 759 744 L 739 723 L 739 716 L 744 716 L 764 740 L 769 739 L 769 737 L 756 724 Z M 315 373 L 334 375 L 355 386 L 371 406 L 378 424 L 381 438 L 381 460 L 379 471 L 368 497 L 349 517 L 340 522 L 324 527 L 307 527 L 298 525 L 282 518 L 273 511 L 261 497 L 254 482 L 250 465 L 250 444 L 252 432 L 257 417 L 266 401 L 277 389 L 287 382 L 303 375 Z M 651 375 L 640 377 L 627 383 L 610 399 L 602 415 L 599 430 L 599 443 L 606 465 L 618 480 L 628 487 L 641 492 L 663 493 L 682 486 L 697 473 L 708 450 L 710 429 L 705 407 L 700 397 L 691 387 L 672 377 Z M 522 322 L 521 338 L 660 337 L 680 341 L 702 351 L 713 359 L 728 374 L 740 393 L 747 415 L 749 438 L 745 460 L 734 484 L 714 506 L 689 521 L 667 527 L 521 527 L 521 542 L 667 542 L 680 540 L 697 535 L 715 526 L 732 513 L 745 499 L 754 485 L 762 467 L 767 442 L 766 416 L 761 397 L 752 378 L 737 358 L 725 347 L 700 332 L 668 323 Z M 521 106 L 521 141 L 554 141 L 558 134 L 565 131 L 575 134 L 579 141 L 579 148 L 571 157 L 561 157 L 555 151 L 521 151 L 521 170 L 556 170 L 560 164 L 564 162 L 572 162 L 579 167 L 581 172 L 579 182 L 571 188 L 562 187 L 556 180 L 521 180 L 521 215 L 598 215 L 626 162 L 652 121 L 622 114 L 588 109 L 553 106 Z M 891 326 L 879 347 L 874 361 L 873 370 L 896 372 L 899 374 L 899 379 L 897 381 L 872 380 L 871 468 L 897 465 L 901 466 L 901 471 L 899 472 L 871 474 L 873 495 L 885 522 L 916 518 L 922 504 L 917 495 L 913 472 L 912 405 L 917 363 L 927 335 Z M 521 601 L 521 672 L 577 672 L 638 668 L 611 601 Z M 812 554 L 780 560 L 791 566 L 800 575 L 804 582 L 807 594 L 805 611 L 799 622 L 791 630 L 783 635 L 771 638 L 752 636 L 741 630 L 735 624 L 730 615 L 727 604 L 727 593 L 734 577 L 746 566 L 716 571 L 712 573 L 712 638 L 705 642 L 643 651 L 648 667 L 697 662 L 746 653 L 788 641 L 816 626 L 833 610 L 845 593 L 850 582 Z M 914 762 L 911 767 L 895 778 L 897 798 L 885 806 L 867 811 L 838 812 L 832 810 L 830 805 L 840 782 L 827 779 L 803 813 L 795 830 L 791 845 L 821 849 L 851 847 L 883 838 L 908 824 L 928 806 L 938 793 L 945 780 L 945 777 L 926 769 L 917 762 Z M 611 878 L 587 889 L 572 898 L 572 901 L 579 912 L 595 928 L 607 936 L 629 945 L 643 948 L 665 948 L 688 942 L 708 930 L 718 920 L 724 908 L 724 906 L 717 901 L 706 900 L 696 904 L 690 910 L 675 918 L 663 920 L 650 918 L 638 912 L 626 900 L 620 891 L 615 878 Z M 869 284 L 865 290 L 832 322 L 831 500 L 842 510 L 842 512 L 853 522 L 865 537 L 867 537 L 868 531 L 865 529 L 857 514 L 850 487 L 850 367 L 852 353 L 859 333 L 872 311 L 878 305 L 871 284 Z M 962 764 L 952 791 L 940 809 L 929 821 L 897 844 L 862 856 L 845 859 L 809 859 L 769 851 L 748 843 L 727 832 L 698 810 L 690 800 L 689 812 L 691 829 L 693 831 L 700 825 L 708 825 L 720 831 L 731 845 L 731 858 L 740 863 L 742 863 L 743 859 L 747 855 L 754 852 L 769 853 L 784 860 L 792 868 L 795 874 L 795 884 L 801 884 L 809 887 L 813 877 L 820 870 L 836 864 L 848 864 L 857 867 L 864 873 L 868 883 L 871 883 L 882 879 L 881 872 L 885 861 L 892 853 L 902 846 L 910 843 L 921 843 L 932 850 L 942 841 L 938 834 L 938 823 L 943 811 L 955 799 L 962 796 L 967 797 L 971 787 L 971 784 L 969 784 L 964 777 Z M 244 527 L 266 527 L 278 530 L 287 535 L 294 541 L 298 549 L 298 556 L 295 563 L 286 571 L 265 578 L 240 577 L 228 573 L 220 568 L 212 556 L 212 549 L 215 542 L 226 533 Z M 662 124 L 641 158 L 615 208 L 604 225 L 521 225 L 521 237 L 615 237 L 647 174 L 675 128 L 670 125 Z M 437 817 L 428 842 L 413 870 L 393 896 L 369 919 L 347 934 L 319 947 L 291 955 L 259 957 L 270 962 L 275 968 L 276 973 L 284 974 L 288 974 L 290 966 L 300 955 L 315 949 L 331 949 L 337 951 L 345 958 L 347 964 L 349 964 L 360 959 L 358 953 L 359 939 L 363 931 L 376 918 L 386 913 L 397 912 L 405 915 L 409 920 L 411 920 L 416 915 L 412 911 L 408 901 L 409 887 L 412 879 L 426 862 L 435 858 L 446 859 L 449 852 L 449 850 L 442 846 L 438 839 L 436 831 Z M 936 367 L 933 374 L 930 395 L 929 464 L 932 485 L 934 487 L 943 487 L 948 481 L 952 456 L 953 391 L 950 371 L 944 367 Z M 766 570 L 752 575 L 744 583 L 740 593 L 740 605 L 744 615 L 751 622 L 761 626 L 771 626 L 784 620 L 791 612 L 795 602 L 795 592 L 790 581 L 778 572 Z M 924 703 L 914 710 L 914 714 L 920 719 L 923 725 L 925 735 L 924 745 L 920 755 L 949 770 L 953 754 L 953 733 L 950 723 L 939 708 L 934 705 Z M 640 690 L 625 692 L 625 701 L 623 705 L 613 710 L 567 716 L 521 713 L 521 719 L 560 723 L 607 723 L 650 719 L 646 717 L 644 713 L 646 690 Z M 295 394 L 281 404 L 275 417 L 275 424 L 278 431 L 289 437 L 297 437 L 307 433 L 315 425 L 318 418 L 318 407 L 316 402 L 306 394 Z M 764 578 L 773 578 L 780 581 L 787 591 L 787 603 L 785 608 L 778 616 L 769 619 L 756 616 L 750 610 L 747 603 L 747 595 L 752 585 Z M 622 766 L 635 768 L 642 774 L 645 780 L 645 791 L 643 796 L 639 801 L 629 806 L 622 806 L 615 803 L 610 799 L 606 791 L 606 780 L 609 774 L 616 768 Z M 547 869 L 547 888 L 541 899 L 544 905 L 554 905 L 566 915 L 574 930 L 572 946 L 575 949 L 580 952 L 584 947 L 591 945 L 604 947 L 615 953 L 622 960 L 626 968 L 626 976 L 637 979 L 639 978 L 641 971 L 648 964 L 656 960 L 660 960 L 639 958 L 622 954 L 603 946 L 588 936 L 570 918 L 563 908 L 553 889 Z M 223 862 L 206 869 L 198 877 L 196 888 L 200 894 L 207 895 L 219 892 L 237 883 L 240 875 L 238 867 L 231 862 Z M 132 867 L 125 870 L 120 876 L 119 882 L 123 888 L 154 897 L 158 896 L 162 892 L 164 888 L 164 880 L 157 872 L 146 868 Z M 389 922 L 380 927 L 369 941 L 368 953 L 372 959 L 378 960 L 383 958 L 401 942 L 405 935 L 405 928 L 401 923 Z M 458 800 L 452 805 L 446 821 L 446 833 L 449 840 L 453 843 L 460 843 L 464 840 L 470 828 L 473 816 L 473 806 L 471 803 L 466 800 Z M 435 868 L 426 875 L 419 888 L 418 901 L 425 909 L 431 909 L 438 903 L 450 879 L 448 871 L 443 868 Z M 943 383 L 946 385 L 947 394 L 947 427 L 946 467 L 945 472 L 941 474 L 937 464 L 937 413 L 939 391 Z M 612 693 L 579 697 L 539 697 L 521 695 L 521 702 L 548 705 L 607 704 L 614 703 L 617 700 L 617 693 Z M 318 958 L 305 963 L 299 969 L 297 974 L 299 982 L 315 982 L 332 978 L 337 975 L 339 967 L 334 960 L 329 958 Z M 295 820 L 286 824 L 277 833 L 274 839 L 273 850 L 280 857 L 288 855 L 293 850 L 304 830 L 305 825 L 302 822 Z M 754 862 L 749 866 L 747 871 L 750 878 L 775 888 L 781 888 L 784 885 L 785 876 L 779 868 L 766 862 Z M 549 468 L 549 483 L 554 484 L 554 510 L 561 510 L 561 481 L 555 479 L 555 474 L 571 474 L 571 510 L 578 510 L 578 469 Z M 837 874 L 826 878 L 821 883 L 821 895 L 837 896 L 855 893 L 857 891 L 858 883 L 855 878 L 847 874 Z M 64 837 L 58 845 L 58 851 L 75 868 L 80 871 L 85 870 L 88 866 L 88 856 L 86 851 L 74 839 Z M 792 760 L 784 768 L 778 771 L 777 774 L 796 786 L 806 790 L 818 774 L 806 769 L 795 760 Z M 914 852 L 903 857 L 894 866 L 892 877 L 895 881 L 899 882 L 906 879 L 924 865 L 923 856 L 920 853 Z M 731 916 L 725 927 L 708 943 L 689 953 L 670 958 L 678 959 L 686 963 L 689 966 L 691 973 L 700 969 L 700 958 L 707 945 L 720 935 L 732 936 L 733 922 Z M 591 955 L 585 958 L 583 962 L 584 966 L 595 974 L 605 979 L 612 980 L 616 975 L 616 969 L 613 964 L 603 957 Z M 729 679 L 703 684 L 703 706 L 730 694 Z M 534 449 L 531 453 L 532 478 L 521 478 L 521 484 L 532 484 L 532 496 L 521 496 L 521 502 L 535 502 L 538 498 L 538 458 L 541 456 L 541 451 L 539 449 Z M 640 866 L 622 870 L 628 885 L 646 878 L 659 876 L 659 866 Z M 224 870 L 230 870 L 233 872 L 233 877 L 230 881 L 212 889 L 206 889 L 204 887 L 204 882 L 208 877 Z M 131 875 L 145 877 L 154 881 L 156 883 L 155 890 L 145 891 L 128 885 L 125 880 Z M 682 610 L 690 611 L 695 618 L 694 625 L 688 630 L 680 630 L 674 623 L 675 615 Z M 624 775 L 617 779 L 615 786 L 619 794 L 628 796 L 634 792 L 636 783 L 632 777 Z M 438 874 L 444 874 L 446 879 L 437 897 L 432 902 L 429 902 L 426 900 L 426 893 L 431 882 Z M 392 929 L 397 929 L 399 931 L 399 936 L 383 953 L 378 954 L 375 951 L 376 944 L 388 931 Z M 701 835 L 698 837 L 699 843 L 710 853 L 720 859 L 722 856 L 722 850 L 718 843 L 708 835 Z M 850 785 L 842 802 L 863 802 L 866 786 Z M 664 968 L 655 971 L 649 976 L 648 985 L 650 987 L 663 987 L 655 986 L 654 981 L 660 977 L 669 975 L 678 975 L 680 980 L 676 983 L 664 986 L 678 984 L 682 981 L 682 974 L 680 971 L 674 968 Z M 660 884 L 639 890 L 635 892 L 634 895 L 641 903 L 644 903 L 654 896 L 663 893 Z M 524 858 L 523 861 L 526 863 L 529 870 L 530 884 L 525 886 L 522 878 L 521 881 L 526 891 L 528 893 L 532 893 L 535 891 L 538 883 L 537 870 L 529 858 Z M 551 449 L 551 456 L 593 456 L 592 449 Z M 463 805 L 468 809 L 468 817 L 463 831 L 461 834 L 457 835 L 454 832 L 454 822 L 459 808 Z M 689 686 L 678 688 L 677 714 L 689 710 Z M 598 606 L 605 608 L 608 612 L 607 621 L 600 626 L 593 624 L 589 618 L 590 611 L 594 607 Z M 297 827 L 302 830 L 299 838 L 289 848 L 281 851 L 279 847 L 282 839 L 291 830 Z M 775 746 L 759 757 L 759 759 L 768 766 L 785 754 L 778 746 Z M 323 965 L 329 966 L 332 969 L 330 974 L 315 979 L 306 979 L 304 977 L 304 973 L 307 970 Z M 755 868 L 761 868 L 774 874 L 778 877 L 778 883 L 773 885 L 756 878 L 753 875 L 753 870 Z M 963 806 L 953 814 L 949 821 L 948 832 L 953 838 L 956 838 L 962 832 L 957 833 L 955 828 L 959 818 L 967 809 L 969 809 L 968 807 Z M 62 843 L 67 843 L 77 851 L 82 860 L 80 865 L 73 863 L 64 854 L 61 849 Z M 685 859 L 684 876 L 686 885 L 693 880 L 707 878 L 693 869 Z M 545 914 L 543 917 L 546 917 L 552 923 L 558 933 L 557 940 L 553 941 L 558 945 L 562 944 L 564 940 L 564 931 L 561 924 L 553 915 Z M 915 859 L 920 859 L 922 861 L 922 865 L 907 877 L 903 879 L 900 878 L 899 872 Z M 838 883 L 850 883 L 853 888 L 848 892 L 829 894 L 826 892 L 826 889 L 829 886 Z M 589 961 L 594 961 L 604 966 L 609 971 L 609 976 L 606 978 L 592 971 L 588 967 Z M 32 788 L 40 804 L 40 809 L 37 814 L 39 817 L 43 817 L 46 812 L 43 794 L 38 788 Z M 247 963 L 242 966 L 245 970 L 262 978 L 266 978 L 265 972 L 260 967 Z M 883 782 L 875 785 L 873 800 L 888 794 L 886 782 Z M 723 944 L 713 952 L 710 958 L 710 967 L 713 970 L 720 967 L 716 966 L 716 960 L 722 951 L 729 945 Z M 713 728 L 717 731 L 714 737 L 704 742 L 698 742 L 696 740 L 697 735 L 705 733 Z M 739 246 L 736 249 L 736 256 L 739 259 L 746 259 L 750 254 L 749 249 L 746 246 Z M 667 900 L 656 905 L 652 909 L 661 912 L 675 909 Z M 977 748 L 974 750 L 972 755 L 971 770 L 975 777 L 980 777 L 981 774 L 977 771 L 976 767 L 977 753 L 980 750 Z M 795 248 L 791 251 L 790 257 L 793 261 L 799 262 L 803 259 L 804 254 L 801 249 Z M 625 779 L 629 780 L 632 784 L 631 789 L 627 792 L 623 792 L 619 788 L 620 782 Z M 948 703 L 947 704 L 953 709 L 959 719 L 965 722 L 968 721 L 966 716 L 959 709 Z M 224 941 L 223 942 L 227 950 L 236 958 L 246 955 L 246 953 L 242 953 L 231 948 Z M 719 573 L 726 576 L 726 581 L 723 584 L 719 584 L 715 580 L 716 575 Z M 962 727 L 965 751 L 967 744 L 971 740 L 967 732 Z M 522 819 L 520 838 L 522 838 L 525 833 L 525 824 Z M 566 171 L 564 173 L 564 177 L 567 179 L 571 178 L 572 173 L 570 171 Z M 565 140 L 563 141 L 562 146 L 564 148 L 568 148 L 570 146 L 570 142 Z M 682 617 L 681 621 L 683 623 L 687 623 L 688 618 Z M 597 613 L 596 617 L 601 618 L 602 615 Z"/>
</svg>
